<svg width="18" height="13" viewBox="0 0 18 13" fill="none" xmlns="http://www.w3.org/2000/svg">
<path d="M17.8905 0.640522L5.89052 12.6405C5.85569 12.6754 5.81434 12.703 5.76881 12.7219C5.72329 12.7408 5.67449 12.7505 5.62521 12.7505C5.57593 12.7505 5.52713 12.7408 5.48161 12.7219C5.43608 12.703 5.39472 12.6754 5.3599 12.6405L0.109896 7.39052C0.0395306 7.32016 -2.56835e-09 7.22472 0 7.12521C2.56835e-09 7.0257 0.0395309 6.93026 0.109896 6.8599C0.180261 6.78953 0.275697 6.75 0.375208 6.75C0.47472 6.75 0.570156 6.78953 0.640521 6.8599L5.62521 11.8446L17.3599 0.109896C17.4303 0.0395309 17.5257 0 17.6252 0C17.7247 0 17.8202 0.0395309 17.8905 0.109896C17.9609 0.180261 18.0004 0.275697 18.0004 0.375209C18.0004 0.47472 17.9609 0.570156 17.8905 0.640522Z" fill="#1E1E1E"/>
</svg>
