<svg width="18" height="19" viewBox="0 0 18 19" fill="none" xmlns="http://www.w3.org/2000/svg">
<path d="M16.125 1.5H13.5V0.375C13.5 0.275544 13.4605 0.180161 13.3902 0.109835C13.3198 0.0395089 13.2245 0 13.125 0C13.0255 0 12.9302 0.0395089 12.8598 0.109835C12.7895 0.180161 12.75 0.275544 12.75 0.375V1.5H4.5V0.375C4.5 0.275544 4.46049 0.180161 4.39017 0.109835C4.31984 0.0395089 4.22446 0 4.125 0C4.02554 0 3.93016 0.0395089 3.85983 0.109835C3.78951 0.180161 3.75 0.275544 3.75 0.375V1.5H1.125C0.826631 1.5 0.540483 1.61853 0.329505 1.8295C0.118526 2.04048 0 2.32663 0 2.625V17.625C0 17.9234 0.118526 18.2095 0.329505 18.4205C0.540483 18.6315 0.826631 18.75 1.125 18.75H16.125C16.4234 18.75 16.7095 18.6315 16.9205 18.4205C17.1315 18.2095 17.25 17.9234 17.25 17.625V2.625C17.25 2.32663 17.1315 2.04048 16.9205 1.8295C16.7095 1.61853 16.4234 1.5 16.125 1.5ZM1.125 2.25H3.75V3.375C3.75 3.47446 3.78951 3.56984 3.85983 3.64016C3.93016 3.71049 4.02554 3.75 4.125 3.75C4.22446 3.75 4.31984 3.71049 4.39017 3.64016C4.46049 3.56984 4.5 3.47446 4.5 3.375V2.25H12.75V3.375C12.75 3.47446 12.7895 3.56984 12.8598 3.64016C12.9302 3.71049 13.0255 3.75 13.125 3.75C13.2245 3.75 13.3198 3.71049 13.3902 3.64016C13.4605 3.56984 13.5 3.47446 13.5 3.375V2.25H16.125C16.2245 2.25 16.3198 2.28951 16.3902 2.35984C16.4605 2.43016 16.5 2.52554 16.5 2.625V6H0.75V2.625C0.75 2.52554 0.789509 2.43016 0.859835 2.35984C0.930161 2.28951 1.02554 2.25 1.125 2.25ZM16.125 18H1.125C1.02554 18 0.930161 17.9605 0.859835 17.8902C0.789509 17.8198 0.75 17.7245 0.75 17.625V6.75H16.5V17.625C16.5 17.7245 16.4605 17.8198 16.3902 17.8902C16.3198 17.9605 16.2245 18 16.125 18Z" fill="black"/>
</svg>
