<svg width="14" height="14" viewBox="0 0 14 14" fill="none" xmlns="http://www.w3.org/2000/svg">
<path d="M12.0314 7.00012C12.0314 7.05814 12.0083 7.11378 11.9673 7.1548C11.9263 7.19583 11.8706 7.21887 11.8126 7.21887H7.00012C6.94211 7.21887 6.88647 7.19583 6.84544 7.1548C6.80442 7.11378 6.78137 7.05814 6.78137 7.00012C6.78137 6.94211 6.80442 6.88647 6.84544 6.84544C6.88647 6.80442 6.94211 6.78137 7.00012 6.78137H11.8126C11.8706 6.78137 11.9263 6.80442 11.9673 6.84544C12.0083 6.88647 12.0314 6.94211 12.0314 7.00012ZM7.00012 3.71887H11.8126C11.8706 3.71887 11.9263 3.69582 11.9673 3.6548C12.0083 3.61378 12.0314 3.55814 12.0314 3.50012C12.0314 3.44211 12.0083 3.38647 11.9673 3.34544C11.9263 3.30442 11.8706 3.28137 11.8126 3.28137H7.00012C6.94211 3.28137 6.88647 3.30442 6.84544 3.34544C6.80442 3.38647 6.78137 3.44211 6.78137 3.50012C6.78137 3.55814 6.80442 3.61378 6.84544 3.6548C6.88647 3.69582 6.94211 3.71887 7.00012 3.71887ZM11.8126 10.2814H7.00012C6.94211 10.2814 6.88647 10.3044 6.84544 10.3454C6.80442 10.3865 6.78137 10.4421 6.78137 10.5001C6.78137 10.5581 6.80442 10.6138 6.84544 10.6548C6.88647 10.6958 6.94211 10.7189 7.00012 10.7189H11.8126C11.8706 10.7189 11.9263 10.6958 11.9673 10.6548C12.0083 10.6138 12.0314 10.5581 12.0314 10.5001C12.0314 10.4421 12.0083 10.3865 11.9673 10.3454C11.9263 10.3044 11.8706 10.2814 11.8126 10.2814ZM4.65786 2.47036L3.06262 4.06559L2.34239 3.34536C2.30134 3.30431 2.24567 3.28125 2.18762 3.28125C2.12957 3.28125 2.0739 3.30431 2.03286 3.34536C1.99181 3.3864 1.96875 3.44207 1.96875 3.50012C1.96875 3.55817 1.99181 3.61384 2.03286 3.65489L2.90786 4.52989C2.92817 4.55023 2.9523 4.56636 2.97885 4.57737C3.00541 4.58838 3.03387 4.59404 3.06262 4.59404C3.09137 4.59404 3.11983 4.58838 3.14639 4.57737C3.17295 4.56636 3.19707 4.55023 3.21739 4.52989L4.96739 2.77989C4.98771 2.75956 5.00383 2.73543 5.01483 2.70888C5.02583 2.68233 5.03149 2.65386 5.03149 2.62512C5.03149 2.59638 5.02583 2.56792 5.01483 2.54136C5.00383 2.51481 4.98771 2.49068 4.96739 2.47036C4.94706 2.45003 4.92294 2.43391 4.89638 2.42291C4.86983 2.41191 4.84136 2.40625 4.81262 2.40625C4.78388 2.40625 4.75542 2.41191 4.72886 2.42291C4.70231 2.43391 4.67818 2.45003 4.65786 2.47036ZM4.65786 5.97036L3.06262 7.56559L2.34239 6.84536C2.32206 6.82503 2.29793 6.80891 2.27138 6.79791C2.24483 6.78691 2.21636 6.78125 2.18762 6.78125C2.15888 6.78125 2.13042 6.78691 2.10386 6.79791C2.07731 6.80891 2.05318 6.82503 2.03286 6.84536C2.01253 6.86568 1.99641 6.88981 1.98541 6.91636C1.97441 6.94292 1.96875 6.97138 1.96875 7.00012C1.96875 7.02886 1.97441 7.05733 1.98541 7.08388C1.99641 7.11044 2.01253 7.13456 2.03286 7.15489L2.90786 8.02989C2.92817 8.05023 2.9523 8.06636 2.97885 8.07737C3.00541 8.08838 3.03387 8.09404 3.06262 8.09404C3.09137 8.09404 3.11983 8.08838 3.14639 8.07737C3.17295 8.06636 3.19707 8.05023 3.21739 8.02989L4.96739 6.27989C4.98771 6.25956 5.00383 6.23544 5.01483 6.20888C5.02583 6.18233 5.03149 6.15386 5.03149 6.12512C5.03149 6.09638 5.02583 6.06792 5.01483 6.04136C5.00383 6.01481 4.98771 5.99068 4.96739 5.97036C4.94706 5.95003 4.92294 5.93391 4.89638 5.92291C4.86983 5.91191 4.84136 5.90625 4.81262 5.90625C4.78388 5.90625 4.75542 5.91191 4.72886 5.92291C4.70231 5.93391 4.67818 5.95003 4.65786 5.97036ZM4.65786 9.47036L3.06262 11.0656L2.34239 10.3454C2.30134 10.3043 2.24567 10.2812 2.18762 10.2812C2.12957 10.2812 2.0739 10.3043 2.03286 10.3454C1.99181 10.3864 1.96875 10.4421 1.96875 10.5001C1.96875 10.5582 1.99181 10.6138 2.03286 10.6549L2.90786 11.5299C2.92817 11.5502 2.9523 11.5664 2.97885 11.5774C3.00541 11.5884 3.03387 11.594 3.06262 11.594C3.09137 11.594 3.11983 11.5884 3.14639 11.5774C3.17295 11.5664 3.19707 11.5502 3.21739 11.5299L4.96739 9.77989C5.00843 9.73884 5.03149 9.68317 5.03149 9.62512C5.03149 9.56707 5.00843 9.5114 4.96739 9.47036C4.92634 9.42931 4.87067 9.40625 4.81262 9.40625C4.75457 9.40625 4.6989 9.42931 4.65786 9.47036Z" fill="black"/>
</svg>
