<svg width="11" height="11" viewBox="0 0 11 11" fill="none" xmlns="http://www.w3.org/2000/svg">
<g opacity="0.3">
<path d="M9.52445 7.8057L7.46195 9.8682C7.39745 9.9327 7.30997 9.96894 7.21875 9.96894C7.12753 9.96894 7.04005 9.9327 6.97555 9.8682C6.91105 9.8037 6.87481 9.71622 6.87481 9.625C6.87481 9.53378 6.91105 9.4463 6.97555 9.3818L8.45152 7.90625H3.09375C3.00258 7.90625 2.91515 7.87003 2.85068 7.80557C2.78622 7.7411 2.75 7.65367 2.75 7.5625V1.375C2.75 1.28383 2.78622 1.1964 2.85068 1.13193C2.91515 1.06747 3.00258 1.03125 3.09375 1.03125C3.18492 1.03125 3.27235 1.06747 3.33682 1.13193C3.40128 1.1964 3.4375 1.28383 3.4375 1.375V7.21875H8.45152L6.97555 5.7432C6.91105 5.6787 6.87481 5.59122 6.87481 5.5C6.87481 5.40878 6.91105 5.3213 6.97555 5.2568C7.04005 5.1923 7.12753 5.15606 7.21875 5.15606C7.30997 5.15606 7.39745 5.1923 7.46195 5.2568L9.52445 7.3193C9.55641 7.35122 9.58177 7.38913 9.59907 7.43086C9.61637 7.47259 9.62527 7.51733 9.62527 7.5625C9.62527 7.60767 9.61637 7.65241 9.59907 7.69414C9.58177 7.73587 9.55641 7.77378 9.52445 7.8057Z" fill="#343330"/>
</g>
</svg>
