<svg width="15" height="15" viewBox="0 0 15 15" fill="none" xmlns="http://www.w3.org/2000/svg">
<path d="M5.625 8.90625H9.375" stroke="#343330" stroke-linecap="round" stroke-linejoin="round"/>
<path d="M5.625 7.03125H9.375" stroke="#343330" stroke-linecap="round" stroke-linejoin="round"/>
<path d="M9.375 2.34375H11.7188C11.8431 2.34375 11.9623 2.39314 12.0502 2.48104C12.1381 2.56895 12.1875 2.68818 12.1875 2.8125V12.6562C12.1875 12.7806 12.1381 12.8998 12.0502 12.9877C11.9623 13.0756 11.8431 13.125 11.7188 13.125H3.28125C3.15693 13.125 3.0377 13.0756 2.94979 12.9877C2.86189 12.8998 2.8125 12.7806 2.8125 12.6562V2.8125C2.8125 2.68818 2.86189 2.56895 2.94979 2.48104C3.0377 2.39314 3.15693 2.34375 3.28125 2.34375H5.625" stroke="#343330" stroke-linecap="round" stroke-linejoin="round"/>
<path d="M5.15625 4.21875V3.75C5.15625 3.1284 5.40318 2.53226 5.84272 2.09272C6.28226 1.65318 6.8784 1.40625 7.5 1.40625C8.1216 1.40625 8.71774 1.65318 9.15728 2.09272C9.59682 2.53226 9.84375 3.1284 9.84375 3.75V4.21875H5.15625Z" stroke="#343330" stroke-linecap="round" stroke-linejoin="round"/>
</svg>
