<svg width="24" height="24" viewBox="0 0 24 24" fill="none" xmlns="http://www.w3.org/2000/svg">
<path d="M21.3752 12.7812C21.2222 14.5629 20.5635 16.2637 19.4767 17.6837C18.3898 19.1036 16.92 20.1836 15.2401 20.7966C13.5603 21.4095 11.7403 21.5299 9.99435 21.1435C8.24841 20.7572 6.64913 19.8802 5.3847 18.6158C4.12027 17.3514 3.24329 15.7521 2.85696 14.0062C2.47062 12.2602 2.59101 10.4402 3.20395 8.76039C3.81688 7.08055 4.89687 5.61072 6.31683 4.52385C7.73679 3.43698 9.43765 2.77829 11.2193 2.6253C11.2685 2.62123 11.3181 2.62691 11.3651 2.642C11.4122 2.6571 11.4558 2.68131 11.4935 2.71326C11.5312 2.74521 11.5622 2.78427 11.5848 2.82821C11.6074 2.87215 11.6211 2.92011 11.6252 2.96936C11.6293 3.01861 11.6236 3.06817 11.6085 3.11522C11.5934 3.16227 11.5692 3.20589 11.5372 3.24359C11.5053 3.28128 11.4662 3.31231 11.4223 3.33491C11.3784 3.35751 11.3304 3.37123 11.2811 3.3753C9.64182 3.51598 8.07678 4.12198 6.77019 5.12198C5.4636 6.12198 4.46983 7.47437 3.9058 9.02003C3.34178 10.5657 3.23097 12.2403 3.58642 13.8468C3.94188 15.4533 4.7488 16.9248 5.91224 18.0883C7.07568 19.2517 8.54722 20.0586 10.1537 20.4141C11.7602 20.7695 13.4348 20.6587 14.9805 20.0947C16.5261 19.5307 17.8785 18.5369 18.8785 17.2303C19.8785 15.9237 20.4845 14.3587 20.6252 12.7194C20.6293 12.6701 20.643 12.6222 20.6656 12.5782C20.6882 12.5343 20.7192 12.4952 20.7569 12.4633C20.7946 12.4313 20.8382 12.4071 20.8853 12.392C20.9323 12.3769 20.9819 12.3712 21.0311 12.3753C21.0804 12.3794 21.1284 12.3931 21.1723 12.4157C21.2162 12.4383 21.2553 12.4693 21.2872 12.507C21.3192 12.5447 21.3434 12.5883 21.3585 12.6354C21.3736 12.6824 21.3793 12.732 21.3752 12.7812ZM12.0002 12.3753H17.2502C17.3497 12.3753 17.445 12.3358 17.5154 12.2655C17.5857 12.1951 17.6252 12.0998 17.6252 12.0003C17.6252 11.9008 17.5857 11.8055 17.5154 11.7351C17.445 11.6648 17.3497 11.6253 17.2502 11.6253H12.3752V6.7503C12.3752 6.65084 12.3357 6.55546 12.2654 6.48513C12.195 6.41481 12.0997 6.3753 12.0002 6.3753C11.9008 6.3753 11.8054 6.41481 11.735 6.48513C11.6647 6.55546 11.6252 6.65084 11.6252 6.7503V12.0003C11.6252 12.0998 11.6647 12.1951 11.735 12.2655C11.8054 12.3358 11.9008 12.3753 12.0002 12.3753ZM15.0002 4.1253C15.1485 4.1253 15.2935 4.08131 15.4169 3.9989C15.5402 3.91649 15.6364 3.79935 15.6931 3.66231C15.7499 3.52527 15.7647 3.37447 15.7358 3.22898C15.7069 3.08349 15.6354 2.94986 15.5305 2.84497C15.4256 2.74008 15.292 2.66865 15.1465 2.63971C15.001 2.61077 14.8502 2.62562 14.7132 2.68239C14.5762 2.73915 14.459 2.83528 14.3766 2.95862C14.2942 3.08196 14.2502 3.22696 14.2502 3.3753C14.2502 3.57421 14.3292 3.76498 14.4699 3.90563C14.6105 4.04628 14.8013 4.1253 15.0002 4.1253ZM18.3752 6.3753C18.5235 6.3753 18.6685 6.33131 18.7919 6.2489C18.9152 6.16649 19.0114 6.04935 19.0681 5.91231C19.1249 5.77527 19.1397 5.62447 19.1108 5.47898C19.0819 5.33349 19.0104 5.19986 18.9055 5.09497C18.8006 4.99008 18.667 4.91865 18.5215 4.88971C18.376 4.86077 18.2252 4.87562 18.0882 4.93239C17.9512 4.98915 17.834 5.08528 17.7516 5.20862C17.6692 5.33196 17.6252 5.47696 17.6252 5.6253C17.6252 5.82421 17.7042 6.01498 17.8449 6.15563C17.9855 6.29628 18.1763 6.3753 18.3752 6.3753ZM20.6252 9.7503C20.7735 9.7503 20.9185 9.70631 21.0419 9.6239C21.1652 9.54149 21.2614 9.42435 21.3181 9.28731C21.3749 9.15027 21.3897 8.99947 21.3608 8.85398C21.3319 8.70849 21.2604 8.57486 21.1555 8.46997C21.0506 8.36508 20.917 8.29365 20.7715 8.26471C20.626 8.23577 20.4752 8.25062 20.3382 8.30739C20.2012 8.36415 20.084 8.46028 20.0016 8.58362C19.9192 8.70696 19.8752 8.85196 19.8752 9.0003C19.8752 9.19921 19.9542 9.38998 20.0949 9.53063C20.2355 9.67128 20.4263 9.7503 20.6252 9.7503Z" fill="black"/>
</svg>
