<svg width="15" height="15" viewBox="0 0 15 15" fill="none" xmlns="http://www.w3.org/2000/svg">
<path d="M13.125 7.50026C13.125 7.62458 13.0756 7.74381 12.9877 7.83172C12.8998 7.91962 12.7806 7.96901 12.6563 7.96901H7.50002C7.3757 7.96901 7.25647 7.91962 7.16856 7.83172C7.08065 7.74381 7.03127 7.62458 7.03127 7.50026C7.03127 7.37594 7.08065 7.25671 7.16856 7.1688C7.25647 7.0809 7.3757 7.03151 7.50002 7.03151H12.6563C12.7806 7.03151 12.8998 7.0809 12.9877 7.1688C13.0756 7.25671 13.125 7.37594 13.125 7.50026ZM7.50002 4.21901H12.6563C12.7806 4.21901 12.8998 4.16962 12.9877 4.08172C13.0756 3.99381 13.125 3.87458 13.125 3.75026C13.125 3.62594 13.0756 3.50671 12.9877 3.4188C12.8998 3.3309 12.7806 3.28151 12.6563 3.28151H7.50002C7.3757 3.28151 7.25647 3.3309 7.16856 3.4188C7.08065 3.50671 7.03127 3.62594 7.03127 3.75026C7.03127 3.87458 7.08065 3.99381 7.16856 4.08172C7.25647 4.16962 7.3757 4.21901 7.50002 4.21901ZM12.6563 10.7815H7.50002C7.3757 10.7815 7.25647 10.8309 7.16856 10.9188C7.08065 11.0067 7.03127 11.1259 7.03127 11.2503C7.03127 11.3746 7.08065 11.4938 7.16856 11.5817C7.25647 11.6696 7.3757 11.719 7.50002 11.719H12.6563C12.7806 11.719 12.8998 11.6696 12.9877 11.5817C13.0756 11.4938 13.125 11.3746 13.125 11.2503C13.125 11.1259 13.0756 11.0067 12.9877 10.9188C12.8998 10.8309 12.7806 10.7815 12.6563 10.7815ZM4.82463 2.48112L3.28127 4.02507L2.67541 3.41862C2.58745 3.33066 2.46816 3.28125 2.34377 3.28125C2.21938 3.28125 2.10008 3.33066 2.01213 3.41862C1.92417 3.50658 1.87476 3.62587 1.87476 3.75026C1.87476 3.87465 1.92417 3.99394 2.01213 4.0819L2.94963 5.0194C2.99316 5.06298 3.04486 5.09756 3.10176 5.12115C3.15867 5.14474 3.21967 5.15688 3.28127 5.15688C3.34287 5.15688 3.40386 5.14474 3.46077 5.12115C3.51768 5.09756 3.56937 5.06298 3.61291 5.0194L5.48791 3.1444C5.57586 3.05644 5.62528 2.93715 5.62528 2.81276C5.62528 2.68837 5.57586 2.56908 5.48791 2.48112C5.39995 2.39316 5.28066 2.34375 5.15627 2.34375C5.03188 2.34375 4.91258 2.39316 4.82463 2.48112ZM4.82463 6.23112L3.28127 7.77507L2.67541 7.16862C2.58745 7.08066 2.46816 7.03125 2.34377 7.03125C2.21938 7.03125 2.10008 7.08066 2.01213 7.16862C1.92417 7.25658 1.87476 7.37587 1.87476 7.50026C1.87476 7.56185 1.88689 7.62284 1.91046 7.67974C1.93403 7.73665 1.96857 7.78835 2.01213 7.8319L2.94963 8.7694C2.99316 8.81298 3.04486 8.84756 3.10176 8.87115C3.15867 8.89474 3.21967 8.90688 3.28127 8.90688C3.34287 8.90688 3.40386 8.89474 3.46077 8.87115C3.51768 8.84756 3.56937 8.81298 3.61291 8.7694L5.48791 6.8944C5.57586 6.80644 5.62528 6.68715 5.62528 6.56276C5.62528 6.43837 5.57586 6.31908 5.48791 6.23112C5.39995 6.14316 5.28066 6.09375 5.15627 6.09375C5.03188 6.09375 4.91258 6.14316 4.82463 6.23112ZM4.82463 9.98112L3.28127 11.5251L2.67541 10.9186C2.63186 10.8751 2.58015 10.8405 2.52325 10.817C2.46635 10.7934 2.40536 10.7813 2.34377 10.7812C2.28218 10.7813 2.22119 10.7934 2.16428 10.817C2.10738 10.8405 2.05568 10.8751 2.01213 10.9186C1.96857 10.9622 1.93403 11.0139 1.91046 11.0708C1.88689 11.1277 1.87476 11.1887 1.87476 11.2503C1.87476 11.3119 1.88689 11.3728 1.91046 11.4297C1.93403 11.4866 1.96857 11.5384 2.01213 11.5819L2.94963 12.5194C2.99316 12.563 3.04486 12.5976 3.10176 12.6211C3.15867 12.6447 3.21967 12.6569 3.28127 12.6569C3.34287 12.6569 3.40386 12.6447 3.46077 12.6211C3.51768 12.5976 3.56937 12.563 3.61291 12.5194L5.48791 10.6444C5.57586 10.5564 5.62528 10.4372 5.62528 10.3128C5.62528 10.1884 5.57586 10.0691 5.48791 9.98112C5.39995 9.89316 5.28066 9.84375 5.15627 9.84375C5.03188 9.84375 4.91258 9.89316 4.82463 9.98112Z" fill="#343330"/>
</svg>
