<svg width="15" height="15" viewBox="0 0 15 15" fill="none" xmlns="http://www.w3.org/2000/svg">
<path d="M6.09375 2.34375H3.28125C3.03261 2.34375 2.79415 2.44252 2.61834 2.61834C2.44252 2.79415 2.34375 3.03261 2.34375 3.28125V6.09375C2.34375 6.34239 2.44252 6.58085 2.61834 6.75666C2.79415 6.93248 3.03261 7.03125 3.28125 7.03125H6.09375C6.34239 7.03125 6.58085 6.93248 6.75666 6.75666C6.93248 6.58085 7.03125 6.34239 7.03125 6.09375V3.28125C7.03125 3.03261 6.93248 2.79415 6.75666 2.61834C6.58085 2.44252 6.34239 2.34375 6.09375 2.34375ZM6.09375 6.09375H3.28125V3.28125H6.09375V6.09375ZM11.7188 2.34375H8.90625C8.65761 2.34375 8.41915 2.44252 8.24334 2.61834C8.06752 2.79415 7.96875 3.03261 7.96875 3.28125V6.09375C7.96875 6.34239 8.06752 6.58085 8.24334 6.75666C8.41915 6.93248 8.65761 7.03125 8.90625 7.03125H11.7188C11.9674 7.03125 12.2058 6.93248 12.3817 6.75666C12.5575 6.58085 12.6562 6.34239 12.6562 6.09375V3.28125C12.6562 3.03261 12.5575 2.79415 12.3817 2.61834C12.2058 2.44252 11.9674 2.34375 11.7188 2.34375ZM11.7188 6.09375H8.90625V3.28125H11.7188V6.09375ZM6.09375 7.96875H3.28125C3.03261 7.96875 2.79415 8.06752 2.61834 8.24334C2.44252 8.41915 2.34375 8.65761 2.34375 8.90625V11.7188C2.34375 11.9674 2.44252 12.2058 2.61834 12.3817C2.79415 12.5575 3.03261 12.6562 3.28125 12.6562H6.09375C6.34239 12.6562 6.58085 12.5575 6.75666 12.3817C6.93248 12.2058 7.03125 11.9674 7.03125 11.7188V8.90625C7.03125 8.65761 6.93248 8.41915 6.75666 8.24334C6.58085 8.06752 6.34239 7.96875 6.09375 7.96875ZM6.09375 11.7188H3.28125V8.90625H6.09375V11.7188ZM11.7188 7.96875H8.90625C8.65761 7.96875 8.41915 8.06752 8.24334 8.24334C8.06752 8.41915 7.96875 8.65761 7.96875 8.90625V11.7188C7.96875 11.9674 8.06752 12.2058 8.24334 12.3817C8.41915 12.5575 8.65761 12.6562 8.90625 12.6562H11.7188C11.9674 12.6562 12.2058 12.5575 12.3817 12.3817C12.5575 12.2058 12.6562 11.9674 12.6562 11.7188V8.90625C12.6562 8.65761 12.5575 8.41915 12.3817 8.24334C12.2058 8.06752 11.9674 7.96875 11.7188 7.96875ZM11.7188 11.7188H8.90625V8.90625H11.7188V11.7188Z" fill="#343330"/>
</svg>
