<svg width="15" height="15" viewBox="0 0 15 15" fill="none" xmlns="http://www.w3.org/2000/svg">
<path d="M13.5937 5.625C13.594 5.58142 13.5881 5.53802 13.5762 5.49609L12.7354 2.55469C12.6788 2.35952 12.5607 2.18787 12.3986 2.06537C12.2365 1.94287 12.0391 1.87609 11.8359 1.875H3.16406C2.96088 1.87609 2.7635 1.94287 2.6014 2.06537C2.43929 2.18787 2.32116 2.35952 2.26465 2.55469L1.42441 5.49609C1.41231 5.53799 1.40619 5.58139 1.40625 5.625V6.5625C1.40625 6.92636 1.49097 7.28521 1.65369 7.61066C1.81641 7.9361 2.05267 8.21919 2.34375 8.4375V12.6562C2.34375 12.7806 2.39314 12.8998 2.48104 12.9877C2.56895 13.0756 2.68818 13.125 2.8125 13.125H12.1875C12.3118 13.125 12.431 13.0756 12.519 12.9877C12.6069 12.8998 12.6562 12.7806 12.6562 12.6562V8.4375C12.9473 8.21919 13.1836 7.9361 13.3463 7.61066C13.509 7.28521 13.5937 6.92636 13.5937 6.5625V5.625ZM3.16406 2.8125H11.8359L12.5051 5.15625H2.49668L3.16406 2.8125ZM6.09375 6.09375H8.90625V6.5625C8.90625 6.93546 8.75809 7.29315 8.49437 7.55687C8.23065 7.82059 7.87296 7.96875 7.5 7.96875C7.12704 7.96875 6.76935 7.82059 6.50563 7.55687C6.24191 7.29315 6.09375 6.93546 6.09375 6.5625V6.09375ZM5.15625 6.09375V6.5625C5.15617 6.80432 5.09372 7.04203 4.97496 7.25268C4.85619 7.46332 4.68511 7.63978 4.47824 7.76501C4.27137 7.89023 4.03571 7.96 3.794 7.96757C3.5523 7.97513 3.31273 7.92025 3.09844 7.8082C3.06583 7.78282 3.02996 7.76193 2.9918 7.74609C2.79321 7.61896 2.62978 7.44393 2.51653 7.2371C2.40329 7.03028 2.34388 6.7983 2.34375 6.5625V6.09375H5.15625ZM11.7187 12.1875H3.28125V8.85937C3.43556 8.89048 3.59258 8.90618 3.75 8.90625C4.11386 8.90625 4.47271 8.82153 4.79816 8.65881C5.1236 8.49609 5.40669 8.25983 5.625 7.96875C5.84331 8.25983 6.1264 8.49609 6.45184 8.65881C6.77729 8.82153 7.13614 8.90625 7.5 8.90625C7.86386 8.90625 8.22271 8.82153 8.54816 8.65881C8.8736 8.49609 9.15669 8.25983 9.375 7.96875C9.59331 8.25983 9.8764 8.49609 10.2018 8.65881C10.5273 8.82153 10.8861 8.90625 11.25 8.90625C11.4074 8.90618 11.5644 8.89048 11.7187 8.85937V12.1875ZM12.0076 7.74609C11.97 7.76196 11.9345 7.78264 11.9021 7.80762C11.6879 7.91978 11.4483 7.97478 11.2066 7.96731C10.9648 7.95984 10.7291 7.89015 10.5222 7.76497C10.3152 7.63979 10.1441 7.46336 10.0252 7.25272C9.90639 7.04208 9.84388 6.80435 9.84375 6.5625V6.09375H12.6562V6.5625C12.6561 6.79835 12.5966 7.03037 12.4832 7.2372C12.3699 7.44403 12.2063 7.61903 12.0076 7.74609Z" fill="#343330"/>
</svg>
