<svg width="27" height="30" viewBox="0 0 27 30" fill="none" xmlns="http://www.w3.org/2000/svg">
<g clip-path="url(#clip0_342_2411)">
<path d="M13.4473 29.4727C20.7511 29.4727 26.672 23.3009 26.672 15.6875C26.672 8.07418 20.7511 1.90234 13.4473 1.90234C6.14355 1.90234 0.222656 8.07418 0.222656 15.6875C0.222656 23.3009 6.14355 29.4727 13.4473 29.4727Z" stroke="black" stroke-width="0.5"/>
<path d="M18.6581 7.36133H19.1091V23.8149C16.9143 23.2508 15.0126 21.7073 13.4041 19.1844C11.8256 21.6916 9.93897 23.2351 7.74414 23.8149V7.36133H8.19513V23.1803C9.12719 22.8355 10.0216 22.2714 10.8785 21.4879C11.7354 20.7044 12.4946 19.7877 13.156 18.7378C11.8632 16.544 11.2168 14.358 11.2168 12.1799C11.2168 9.93907 11.9534 8.33286 13.4266 7.36133C14.8848 8.31721 15.6139 9.91557 15.6139 12.1564C15.6139 14.3502 14.9675 16.544 13.6746 18.7378C14.3211 19.8034 15.0802 20.7279 15.9521 21.5114C16.8241 22.2949 17.726 22.8512 18.6581 23.1803V7.36133ZM11.6677 12.1799C11.6677 14.2013 12.2465 16.2385 13.4041 18.2912C14.5766 16.2541 15.1629 14.2092 15.1629 12.1564C15.1629 10.229 14.5842 8.81865 13.4266 7.92545C12.254 8.83433 11.6677 10.2525 11.6677 12.1799Z" fill="black"/>
</g>
<defs>
<clipPath id="clip0_342_2411">
<rect width="27" height="30" fill="white"/>
</clipPath>
</defs>
</svg>
